<svg id="Layer_1" data-name="Layer 1" xmlns="http://www.w3.org/2000/svg" viewBox="0 0 141.37 137.51"><defs><style>.cls-1{fill:#fff;stroke:#000;stroke-miterlimit:10;}</style></defs><path class="cls-1" d="M100.45,107c23.83-.48,32.76,5.34,36.36,11.11,3.39,5.43,4.21,14.27,13.13,23.24,2,2,3.33,2.95,3,4-1,3.88-22.39,6.21-37.38-4-14.8-10.12-16.85-28-17.18-31.32" transform="translate(-30.41 -28.99)"/><path class="cls-1" d="M97.25,95.25c12.55-16.84,12.88-26.8,10.57-32.87-3.1-8.14-12.09-12.28-16.44-27-1-3.51-1.25-5.73-2.35-5.87-3.23-.41-11.15,17.55-9.39,35.22,1.43,14.44,8.92,24.65,12.91,29.36" transform="translate(-30.41 -28.99)"/><path class="cls-1" d="M90.21,100c-1.24-3-8.34-19.64-27-27a48.78,48.78,0,0,0-31.7-1.17A28.93,28.93,0,0,1,42.07,85.86c.73,2.28.53,2.78,1.17,4.7,3.14,9.37,13.56,14.1,16.44,15.26,12.71,5.14,24.6-.06,27-1.18" transform="translate(-30.41 -28.99)"/><path class="cls-1" d="M87.86,108.17c-11,5.84-15.54,12.46-17.61,17.61-4.25,10.52,0,19.36-7,34.05-1.54,3.22-3,5.31-2.35,5.87,2.25,2.08,23.33-6.64,31.7-25.83,6.25-14.31,2.45-27.75,1.18-31.7" transform="translate(-30.41 -28.99)"/><path class="cls-1" d="M100.77,98.77c20.5-21.62,32.55-25,39.92-23.48,4.56.94,13.44,5,25.83,3.52,2.46-.29,4.35-.71,4.7,0,1.12,2.27-14.08,14.16-30.53,20-7,2.48-20,5.87-37.57,3.53" transform="translate(-30.41 -28.99)"/></svg>